<svg xmlns="http://www.w3.org/2000/svg" viewBox="0 0 158 38" fill="none"><path fill-rule="evenodd" clip-rule="evenodd" d="M68.7049 27.3225V9.54053H65.7806V27.3225H68.7049ZM39.9977 21.0948V27.3231H36.9561V10.4674H43.5208C44.8127 10.4674 45.9303 10.697 46.8737 11.1562C47.8171 11.6154 48.5355 12.2521 49.0287 13.0664C49.5219 13.8806 49.7685 14.8087 49.7685 15.8506C49.7685 16.9388 49.5239 17.8765 49.0346 18.6637C48.5452 19.4509 47.8328 20.0529 46.8972 20.4697C45.9616 20.8865 44.8362 21.0948 43.5208 21.0948H39.9977ZM39.9976 18.6869H43.5208C44.609 18.6869 45.4135 18.436 45.9341 17.9344C46.4548 17.4327 46.7151 16.7458 46.7151 15.8737C46.7151 15.3335 46.6016 14.8376 46.3745 14.3861C46.1475 13.9346 45.7952 13.5719 45.3176 13.2979C44.84 13.0239 44.2411 12.8869 43.5208 12.8869H39.9976V18.6869ZM57.3165 27.5552C58.5301 27.5552 59.5831 27.2813 60.4756 26.7333C61.3682 26.1853 62.0513 25.429 62.5249 24.4642C62.9986 23.4995 63.2354 22.4074 63.2354 21.188V20.9449C63.2354 19.7255 62.9986 18.6334 62.5249 17.6687C62.0513 16.704 61.3662 15.9457 60.4698 15.3938C59.5733 14.842 58.5144 14.5661 57.2931 14.5661C56.0874 14.5661 55.0382 14.842 54.1457 15.3938C53.2532 15.9457 52.5701 16.704 52.0964 17.6687C51.6228 18.6334 51.3859 19.7255 51.3859 20.9449V21.188C51.3859 22.4074 51.6228 23.4995 52.0964 24.4642C52.5701 25.429 53.2551 26.1853 54.1516 26.7333C55.048 27.2813 56.103 27.5552 57.3165 27.5552ZM55.0617 24.1056C55.5628 24.862 56.3144 25.2402 57.3166 25.2402C57.982 25.2402 58.5399 25.0607 58.99 24.7018C59.4402 24.343 59.773 23.8587 59.9883 23.249C60.2036 22.6392 60.3112 21.9524 60.3112 21.1883V20.9452C60.3112 20.1888 60.2036 19.5039 59.9883 18.8903C59.773 18.2767 59.4383 17.7886 58.9842 17.4258C58.5301 17.0631 57.9664 16.8817 57.2931 16.8817C56.6276 16.8817 56.0717 17.0631 55.6254 17.4258C55.1792 17.7886 54.8484 18.2767 54.6331 18.8903C54.4178 19.5039 54.3101 20.1888 54.3101 20.9452V21.1883C54.3101 22.3768 54.5607 23.3493 55.0617 24.1056ZM75.4837 31.4484C74.8847 32.0697 74.0294 32.3804 72.9176 32.3804C72.534 32.3804 72.0682 32.3109 71.5201 32.172V29.9608L72.0603 29.984C72.7571 29.984 73.2876 29.8624 73.6516 29.6193C74.0157 29.3762 74.3034 28.9498 74.5148 28.3401L74.9141 27.275L70.4514 14.7953H73.6105L76.2529 23.2L78.813 14.7953H81.9251L76.8636 29.2199C76.5426 30.0843 76.0826 30.8271 75.4837 31.4484ZM86.4434 27.3237V18.2707C86.9131 17.3677 87.7078 16.9162 88.8274 16.9162C89.5633 16.9162 90.1208 17.0937 90.5008 17.4487C90.8808 17.8037 91.0708 18.4019 91.0708 19.2431V27.3237H93.9948V18.9769L93.9828 18.7106C94.1548 18.1626 94.4468 17.7266 94.8578 17.4024C95.2688 17.0783 95.7798 16.9162 96.3908 16.9162C97.134 16.9162 97.692 17.0841 98.064 17.4198C98.436 17.7555 98.622 18.3517 98.622 19.2084V27.3237H101.546V19.22C101.546 17.6069 101.19 16.428 100.477 15.6833C99.7649 14.9385 98.735 14.5661 97.389 14.5661C96.5348 14.5661 95.7798 14.734 95.1218 15.0697C94.4648 15.4054 93.9198 15.8743 93.4898 16.4763C93.1688 15.828 92.7108 15.3475 92.1158 15.035C91.5208 14.7224 90.8238 14.5661 90.0252 14.5661C89.2423 14.5661 88.5436 14.6992 87.929 14.9655C87.3144 15.2318 86.7918 15.6157 86.3612 16.1174L86.2672 14.7976H83.5192V27.3237H86.4434ZM110.233 27.1732C109.677 27.4279 109.047 27.5552 108.342 27.5552C107.512 27.5552 106.769 27.3932 106.111 27.069C105.453 26.7449 104.94 26.2972 104.573 25.7261C104.205 25.155 104.021 24.5144 104.021 23.8044C104.021 22.4692 104.524 21.4466 105.53 20.7365C106.536 20.0265 107.963 19.6715 109.81 19.6715H111.572V18.8611C111.572 18.1974 111.388 17.6783 111.02 17.304C110.652 16.9297 110.108 16.7425 109.387 16.7425C108.957 16.7425 108.577 16.8159 108.248 16.9625C107.919 17.1091 107.665 17.3098 107.485 17.5645C107.305 17.8192 107.215 18.1047 107.215 18.4212H104.291C104.291 17.7497 104.508 17.1188 104.942 16.5284C105.377 15.938 105.995 15.4633 106.798 15.1044C107.6 14.7455 108.518 14.5661 109.552 14.5661C110.523 14.5661 111.38 14.7282 112.124 15.0523C112.868 15.3765 113.449 15.8627 113.868 16.511C114.287 17.1593 114.496 17.9504 114.496 18.8842V24.4064C114.496 25.5486 114.657 26.4554 114.978 27.1269V27.3237H111.995C111.869 27.0536 111.76 26.6638 111.666 26.1545C111.266 26.5789 110.789 26.9185 110.233 27.1732ZM108.906 25.2508C108.288 25.2508 107.806 25.0906 107.462 24.7704C107.117 24.4501 106.945 24.0352 106.945 23.5258C106.945 22.8698 107.207 22.3605 107.732 21.9977C108.256 21.635 109.028 21.4536 110.045 21.4536H111.572V23.7921C111.353 24.1934 111.006 24.5369 110.533 24.8224C110.059 25.108 109.517 25.2508 108.906 25.2508ZM120.353 18.7916V27.3237H117.429V14.7976H120.212L120.294 16.21C120.615 15.6852 121.015 15.28 121.492 14.9944C121.97 14.7089 122.522 14.5661 123.148 14.5661C123.313 14.5661 123.498 14.5815 123.706 14.6124C123.913 14.6433 124.068 14.678 124.17 14.7166L124.146 17.4371C123.755 17.3754 123.367 17.3445 122.984 17.3445C121.676 17.3445 120.799 17.8269 120.353 18.7916ZM128.852 27.3225V23.259L130.133 21.974L133.832 27.3225H137.214L132.012 20.006L136.721 14.7964H133.198L129.722 18.6746L128.852 19.7397V9.54053H125.94V27.3225H128.852ZM147.123 26.8838C146.301 27.3314 145.306 27.5552 144.14 27.5552C142.903 27.5552 141.822 27.2909 140.898 26.7622C139.975 26.2336 139.266 25.51 138.773 24.5916C138.28 23.6732 138.033 22.6428 138.033 21.5006V21.0259C138.033 19.7371 138.283 18.6045 138.785 17.6282C139.286 16.6519 139.975 15.8974 140.851 15.3649C141.728 14.8324 142.715 14.5661 143.811 14.5661C145.009 14.5661 146.015 14.8247 146.829 15.3418C147.643 15.8588 148.252 16.5824 148.655 17.5124C149.058 18.4424 149.26 19.521 149.26 20.7481V21.9637H140.981C141.035 22.6042 141.204 23.1715 141.486 23.6654C141.767 24.1594 142.149 24.5453 142.631 24.8231C143.112 25.101 143.674 25.2399 144.316 25.2399C145.631 25.2399 146.688 24.7305 147.487 23.7118L149.049 25.2052C148.587 25.8766 147.945 26.4362 147.123 26.8838ZM146.371 19.8801H141.039C141.172 18.9308 141.474 18.1938 141.944 17.669C142.413 17.1441 143.032 16.8817 143.799 16.8817C144.66 16.8817 145.295 17.1422 145.702 17.6632C146.109 18.1841 146.332 18.8498 146.371 19.6602V19.8801ZM157.383 27.2772C156.82 27.4624 156.186 27.555 155.481 27.555C154.447 27.555 153.633 27.2733 153.038 26.7099C152.443 26.1465 152.146 25.2474 152.146 24.0125V16.9275H150.079V14.7974H152.146V11.7412H155.07V14.7974H157.301V16.9275H155.07V23.8157C155.07 24.3405 155.179 24.6975 155.399 24.8866C155.618 25.0757 155.947 25.1702 156.385 25.1702C156.698 25.1702 157.031 25.1316 157.383 25.0544V27.2772Z" fill="white"></path><path fill-rule="evenodd" clip-rule="evenodd" d="M24.0629 33.5654V4.43457L23.8087 4.5062L0.7366 11.0045L0.59082 11.0455V26.9545L0.736636 26.9955L24.0629 33.5654ZM21.4298 16.9078L5.41453 12.3971L21.4298 7.88593V16.9078ZM3.22391 23.5101V14.4899L19.2356 19.0001L3.22391 23.5101ZM21.4298 30.1141L5.41457 25.603L21.4298 21.0923V30.1141Z" fill="white"></path></svg>
